<?xml version="1.0" encoding="utf-8" ?>
<svg xmlns="http://www.w3.org/2000/svg" xmlns:xlink="http://www.w3.org/1999/xlink" width="1024" height="1024">
	<path fill="#FEFEFE" d="M0 0L1024 0L1024 1024L0 1024L0 0Z"/>
	<path fill="#25294D" d="M510.568 146.206C510.657 146.194 510.745 146.179 510.834 146.171C530.768 144.468 554.121 147.292 570.232 160.146C558.126 156.642 546.181 153.603 533.605 152.331C512.088 149.577 490.631 152.269 469.48 156.319C483.09 150.903 495.955 147.512 510.568 146.206Z"/>
	<path fill="#25294D" d="M697.769 212.356C697.867 212.447 697.984 212.521 698.064 212.628C699.177 214.141 698.057 222.561 697.937 224.707C701.605 226.633 705.808 227.992 709.642 229.615C705.367 230.924 701.132 232.266 696.93 233.797Q696.252 240.489 695.458 247.168C693.233 243.85 691.194 240.072 688.529 237.111C688.06 236.59 687.517 236.765 686.845 236.725C683.107 237.503 679.312 238.037 675.563 238.793L683.533 228.277C681.095 224.516 678.586 220.818 676.715 216.732C680.983 218.628 685.033 220.057 689.651 220.838C692.275 217.906 694.908 215.059 697.769 212.356Z"/>
	<path fill="#25294D" d="M683.749 471.166Q689.167 475.555 694.536 480.005C699.357 478.302 703.819 475.847 708.32 473.455Q705.708 480.209 703.196 487.001C706.804 490.672 710.562 494.222 714.24 497.824C709.481 497.379 704.652 497.416 699.875 497.315C699.669 497.332 699.457 497.319 699.255 497.367C697.155 497.866 693.226 508.159 692.013 510.524C690.621 505.457 689.062 500.477 687.425 495.485Q680.4 494.304 673.401 492.981C677.512 490.841 681.275 488.046 685.399 485.879C685.07 480.958 684.363 476.058 683.749 471.166Z"/>
	<path fill="#25294D" d="M903.959 404.834C905.122 405.492 906.355 408.68 907.125 409.953C910.132 414.926 913.681 419.541 917.335 424.049C912.115 429.426 901.596 444.168 896.023 447.181C893.371 448.615 890.105 449.247 887.192 448.253C885.172 447.563 883.325 445.894 882.503 443.918C881.899 442.465 881.839 440.758 882.552 439.327C883.222 437.982 884.403 437.061 885.888 436.785C889.976 436.023 895.004 439.15 898.032 441.654L898.599 442.131C901.297 439.56 909.017 430.732 910.808 427.745C907.51 422.949 903.77 418.256 900.087 413.746C893.897 418.424 889.168 424.916 882.902 429.321C878.321 430.092 872.178 430.081 868.204 427.252C866.805 426.256 865.714 424.796 865.67 423.009C865.633 421.493 866.373 420.137 867.555 419.221C869.342 417.837 871.694 417.551 873.863 417.987C878.543 418.926 881.382 422.278 883.813 426.063C890.573 419.035 896.786 411.469 903.959 404.834Z"/>
	<path fill="#25294D" d="M863.188 175.344C864.742 179.954 865.021 185.632 865.71 190.487C870.728 191.409 875.676 192.967 880.595 194.319C876.052 196.714 871.242 198.773 866.589 200.958C866.647 206.397 866.898 211.848 867.069 217.286L856.057 206.323C851.431 207.194 846.465 209.557 841.963 211.104C844.236 206.328 846.613 201.588 848.349 196.583C845.28 192.979 842.908 189.123 840.523 185.045Q847.624 186.58 854.749 187.996C857.698 183.872 860.421 179.591 863.188 175.344Z"/>
	<path fill="#25294D" d="M912.457 313.434C917.003 315.309 921.322 319.371 925.303 322.266C930.178 320.078 934.726 317.396 939.786 315.596Q937.597 322.61 935.72 329.713C939.142 333.888 943.101 337.322 947.152 340.856C941.908 340.92 936.746 341.044 931.522 341.57L931.123 341.71C928.277 345.017 925.958 352.295 924.088 356.429C922.524 351.194 920.903 345.862 918.571 340.914C913.851 339.202 908.817 338.538 903.881 337.749C907.893 335.104 911.56 332.309 914.87 328.811C914.135 323.713 912.59 318.589 912.457 313.434Z"/>
	<path fill="#FEFEFE" d="M918.05 322.164C921.213 323.439 922.962 325.65 925.119 328.172C927.835 325.977 930.531 323.871 933.459 321.966C932.565 325.099 931.763 328.284 930.483 331.287C932.967 333.391 935.339 335.604 937.717 337.826C935.569 337.874 933.394 337.663 931.249 337.536C930.787 337.528 929.897 337.496 929.462 337.554C926.807 337.911 926.233 342.216 924.798 344.203C924.691 344.351 924.58 344.497 924.471 344.644C923.877 342.766 923.36 340.717 922.565 338.92C920.962 335.298 917.02 337.178 914.015 335.882L914.101 335.159C915.817 333.481 918.138 332.515 920.254 331.422C919.009 328.324 918.069 325.538 918.05 322.164Z"/>
	<path fill="#25294D" d="M805.256 443.152C814.846 448.462 824.169 454.124 833.931 459.145C832.24 466.382 825.747 494.946 820.945 498.509C818.325 500.453 814.56 501.442 811.347 500.741C809.129 500.257 806.865 498.933 805.654 496.969C804.805 495.592 804.495 493.909 805.023 492.353C805.521 490.886 806.675 489.814 808.124 489.31C812.753 487.698 817.924 490.076 821.979 492.156C824.537 485.021 825.942 477.384 828.255 470.128C828.608 469.159 828.812 468.601 828.637 467.572Q817.083 461.286 805.645 454.792C803.584 462.114 801.154 480.15 796.02 484.934C794.051 486.769 789.636 487.19 787.068 487.083C784.624 486.981 781.979 486.104 780.407 484.138C779.41 482.891 778.946 481.325 779.313 479.737C779.729 477.934 781.128 476.563 782.778 475.828C787.339 473.799 792.239 475.562 796.575 477.232C799.896 466.018 802.578 454.536 805.256 443.152Z"/>
	<path fill="#25294D" d="M922.369 471.735C931.073 478.146 940.533 483.315 949.265 489.612C946.291 499.248 943.315 508.999 940.013 518.522C938.52 522.828 936.849 528.181 932.356 530.194C929.402 531.517 925.603 531.143 922.706 529.842C920.487 528.845 918.359 527.019 917.602 524.637C917.22 523.432 917.269 522.079 918.014 521.012C919.062 519.514 921.161 518.869 922.881 518.609C928.078 517.824 931.126 518.816 935.232 521.758C938.463 515.995 940.092 508.638 942.296 502.382C942.745 501.233 943.465 499.881 943.315 498.63C943.092 496.784 924.006 486.051 921.547 484.6C919.135 491.352 915.331 508.775 910.148 512.847C907.684 514.784 904.536 515.162 901.521 514.755C898.575 514.357 894.366 513.143 892.668 510.453C891.991 509.381 891.924 508.183 892.372 507.009C893.057 505.213 894.569 504.309 896.3 503.75C900.719 502.321 906.145 502.895 910.203 505.082C910.364 505.168 910.523 505.259 910.682 505.348C913.227 503.559 921.128 476.384 922.369 471.735Z"/>
	<path fill="#25294D" d="M808.976 258.198C811.978 260.437 818.821 274.435 821.191 278.686C829.298 277.105 837.953 276.898 846.194 276.261C839.987 281.875 834.108 287.973 828.45 294.137C830.771 301.827 834.51 309.288 837.799 316.6Q827.821 311.73 817.626 307.332L816.533 307.073C811.79 308.438 800.223 318.891 796.758 322.416C798.043 314.37 799.044 306.255 800.18 298.185C793.058 293.93 785.74 289.99 778.73 285.551C786.892 283.724 795.167 282.781 803.267 280.622C805.041 273.12 807.054 265.664 808.976 258.198Z"/>
	<path fill="#25294D" d="M526.802 211.269C529.79 213.81 534.269 230.819 535.892 235.447L563.512 237.094C555.926 242.698 547.799 247.503 540.277 253.199C542.436 261.997 543.363 271.104 545.522 279.942C538.651 274.874 532.31 268.974 525.206 264.241C517.178 267.607 509.248 273.439 501.82 278.051L510.39 252.501C503.511 246.423 495.743 241.442 488.901 235.325C498.149 235.318 507.414 235.005 516.669 234.976C519.942 227.052 523.035 218.97 526.802 211.269Z"/>
	<path fill="#25294D" d="M529.013 125.711C551.009 124.875 574.494 127.398 595.213 134.998C624.357 145.69 650.014 167.314 663.184 195.715C659.857 190.988 656.42 186.65 652.386 182.495Q650.171 180.169 647.861 177.936Q645.551 175.704 643.152 173.568Q640.752 171.433 638.266 169.398Q635.781 167.363 633.213 165.433Q630.646 163.502 628.001 161.679Q625.356 159.856 622.638 158.144Q619.92 156.432 617.134 154.833Q614.348 153.234 611.498 151.751Q608.648 150.269 605.74 148.905Q602.831 147.541 599.869 146.299Q596.907 145.056 593.896 143.936Q590.885 142.817 587.831 141.823Q584.776 140.828 581.683 139.961Q578.59 139.093 575.464 138.354Q572.338 137.615 569.184 137.005Q566.03 136.395 562.854 135.916C553.815 134.591 544.785 134.31 535.666 134.18C497.726 134.966 466.908 141.995 432.259 157.883Q416.359 165.278 401.338 174.326C398.53 176.049 392.081 181.737 389.051 181.568L389.63 181.934L389.231 181.988L389.094 181.615C394.742 177.561 400.167 173.222 405.934 169.331C444.301 143.449 482.711 128.58 529.013 125.711Z"/>
	<path fill="#25294D" d="M718.843 318.904C725.548 323.907 731.728 330.286 737.686 336.178C746.231 332.988 755.104 330.546 763.763 327.654C760.2 335.487 756.621 343.265 752.386 350.763C757.285 358.305 762.328 365.486 768.036 372.443C760.677 372.454 749.669 370.252 742.781 371.724C737.992 379.348 732.638 386.664 727.756 394.245C725.701 385.379 724.162 375.848 721.11 367.29C712.874 365.024 704.445 363.191 696.15 361.117C704.378 356.108 712.016 351.097 719.509 345.032C718.675 336.685 718.042 327.24 718.843 318.904Z"/>
	<path fill="#FEFEFE" d="M725.929 335.117C729.821 336.675 733.202 340.91 735.968 343.922C741.061 342.6 745.949 340.638 750.864 338.777C748.569 343.234 746.638 347.901 744.605 352.483C748.126 356.294 751.303 361.015 754.123 365.373Q747.056 364.752 740.005 363.965L739.159 363.923C736.209 365.561 732.755 374.191 731.097 377.381C729.349 372.322 728.372 367.117 727.285 361.887C722.727 360.791 718.223 359.692 713.81 358.092C717.892 355.212 721.889 352.072 726.495 350.082C726.551 345.055 726.37 340.125 725.929 335.117Z"/>
	<path fill="#25294D" d="M314.927 31.9779C315.284 32.4766 317.936 45.5935 318.682 47.7869C330.666 83.0147 345.058 107.276 342.88 146.546C340.02 198.131 316.954 240.811 278.721 274.969C282.543 295.705 289.044 316.4 294.824 336.671C318.099 334.769 338.031 336.195 359.072 347.627C389.817 364.333 414.252 393.481 424.159 427.245C431.648 425.157 438.915 422.221 446.19 419.489C443.827 414.731 441.128 410.143 438.732 405.395L402.476 334.33C397.232 324.189 387.759 308.732 384.176 298.86C383.198 296.164 383.145 293.317 383.683 290.512Q383.766 290.075 383.871 289.643Q383.976 289.211 384.104 288.785Q384.231 288.359 384.381 287.94Q384.53 287.521 384.701 287.11Q384.872 286.7 385.064 286.299Q385.256 285.897 385.469 285.507Q385.681 285.116 385.913 284.737Q386.146 284.358 386.398 283.991Q386.649 283.624 386.92 283.271Q387.19 282.918 387.479 282.58Q387.767 282.241 388.072 281.918Q388.378 281.595 388.7 281.288Q389.022 280.981 389.359 280.691Q389.696 280.401 390.048 280.129Q390.4 279.857 390.765 279.604Q391.131 279.35 391.509 279.116C395.363 276.739 400.312 275.898 404.718 277.062C407.768 277.868 410.832 280.239 412.669 282.768C415.722 286.972 417.943 291.973 420.319 296.587Q426.61 308.954 433.072 321.232C436.735 328.046 440.914 334.568 444.615 341.357L478.547 403.787C486.899 399.095 495.372 394.52 503.444 389.356C536.929 367.938 565.174 340.441 583.379 304.791C589.144 293.501 594.077 281.301 596.751 268.878C601.23 248.073 598.096 221.82 586.225 203.804C576.997 189.799 560.667 180.363 545.211 174.809C511.491 162.692 472.773 165.52 439.062 176.245C422.799 181.418 406.24 188.533 391.402 196.959C389.735 197.906 382.039 203.075 380.597 202.777C384.729 198.513 393.393 193.377 398.705 190.222C437.836 166.977 487.857 152.79 533.036 164.375C557.635 170.682 580.631 183.233 593.735 205.753C607.153 228.815 607.811 261.381 601.047 286.61C589.776 328.646 556.17 365.433 521.372 390.054C509.516 398.442 496.558 405.617 483.974 412.851C490.885 425.946 498.411 438.796 504.734 452.185C526.023 443.259 546.742 430.463 564.43 415.656C586.767 396.958 606.073 374.846 620.292 349.347C623.997 342.704 626.969 335.872 630.351 329.097C635.103 319.579 642.554 302.99 643.379 292.452C643.456 291.476 643.713 291.491 644.38 290.817L643.97 292.474L644.289 292.426C641.239 310.977 635.763 328.857 628.766 346.293C607.892 398.308 561.112 439.561 510.174 461.295C516.798 472.356 522.615 484.091 528.673 495.479C584.065 467.827 624.802 419.97 648.167 363.209C653.743 349.661 656.861 335.703 661.735 322.004C659.896 338.746 655.533 355.472 650.512 371.505C631.567 432 589.533 475.807 533.915 504.868C535.579 509.646 538.269 514.229 540.603 518.716Q547.755 532.41 555.272 545.907C565.898 565.316 576.084 584.939 586.529 604.444Q659.985 742.415 736.998 878.429C740.146 884 746.136 891.867 744.093 898.509C741.018 908.505 729.17 916.383 720.307 920.741C711.743 924.953 700.366 928.255 691.014 924.749C688.248 923.712 687.102 921.797 685.699 919.309C683.061 914.63 681.062 909.405 678.852 904.501Q672.687 890.774 666.367 877.117L625.225 788.558Q581.587 694.265 536.745 600.539C524.012 574.213 511.746 547.542 498.01 521.726C487.762 525.648 477.48 529.666 467.029 533.015C445.147 540.027 422.5 545.523 400.158 550.922C384.932 554.601 369.455 557.226 354.217 560.839C292.859 575.389 216.806 598.009 167.905 638.955C165.904 640.631 163.634 642.516 162.245 644.742C157.472 652.394 154.581 669.367 153.808 678.276C151.404 705.965 160.532 728.798 178.233 749.737C176.295 743.347 174.69 736.88 173.896 730.239C171.14 707.18 179.372 684.806 193.681 666.92C213.252 642.456 245.801 626.67 276.691 623.454C304.085 620.602 334.602 625.417 356.473 643.257C372.34 656.199 382.565 676.008 384.498 696.347C386.932 721.953 377.546 748.842 361.213 768.487C342.359 791.164 316.723 802.94 287.548 805.71L306.283 876.101C309.234 887.547 312.874 899.251 314.551 910.936C316.833 926.831 314.9 940.886 305.075 953.917C295.461 966.669 280.183 973.909 264.595 976.017C240.083 979.333 215.616 971.405 196.216 956.542C182.15 945.765 171.075 930.738 168.833 912.783C167.101 898.906 170.96 885.606 179.582 874.632Q180.302 873.715 181.067 872.836Q181.831 871.957 182.639 871.117Q183.447 870.277 184.296 869.478Q185.145 868.68 186.033 867.925Q186.921 867.17 187.846 866.461Q188.771 865.751 189.73 865.089Q190.689 864.427 191.68 863.814Q192.671 863.201 193.692 862.638Q194.712 862.075 195.76 861.564Q196.807 861.053 197.879 860.596Q198.951 860.138 200.044 859.735Q201.138 859.331 202.25 858.983Q203.362 858.635 204.491 858.343Q205.619 858.051 206.76 857.816Q207.902 857.581 209.054 857.404Q210.206 857.226 211.365 857.107Q212.486 856.972 213.612 856.892Q214.738 856.813 215.867 856.79Q216.996 856.767 218.124 856.8Q219.253 856.833 220.378 856.922Q221.504 857.011 222.623 857.156Q223.743 857.301 224.854 857.501Q225.965 857.702 227.065 857.957Q228.165 858.213 229.25 858.523Q230.336 858.833 231.405 859.196Q232.474 859.56 233.523 859.976Q234.572 860.392 235.6 860.86Q236.627 861.328 237.63 861.847Q238.633 862.365 239.609 862.933Q240.585 863.501 241.531 864.117Q242.477 864.732 243.392 865.394Q244.307 866.056 245.187 866.763C254.886 874.594 261.234 885.215 262.427 897.733C263.518 909.192 260.604 921.703 253.095 930.615C243.862 941.573 231.928 946.704 217.865 947.988C218.117 948.186 218.363 948.39 218.619 948.582C231.303 958.096 249.23 962.587 264.88 960.039C276.421 958.161 287.575 951.367 294.31 941.762C298.223 936.18 300.694 929.666 300.952 922.826C301.422 910.386 297.049 898.318 294.099 886.397C290.539 872.007 287.157 857.601 283.362 843.268C280.213 831.372 276.433 819.299 274.229 807.198C232.104 809.741 188.724 802.176 151.724 781.297C117.737 762.119 92.032 731.108 81.6215 693.225C70.5855 653.065 78.6832 606.545 99.3011 570.55C134.642 508.852 204.626 480.234 269.854 462.299C254.517 454.161 240.513 440.512 235.169 423.688C229.824 406.861 233.745 388.927 241.832 373.639C250.113 357.985 266.221 344.774 283.069 339.481C277.994 321.566 274.199 303.267 268.967 285.431C264.067 289.02 259.685 293.87 255.215 298.019C250.058 302.806 244.584 307.256 239.568 312.196C231.944 319.705 225.169 328.212 218.918 336.888C201.155 361.54 190.062 390.436 195.187 421.207C198.406 440.538 208.756 459.097 224.844 470.507C221.749 471.794 218.522 472.821 215.355 473.921Q214.273 473.711 213.199 473.461Q212.126 473.211 211.063 472.92Q210 472.629 208.948 472.299Q207.897 471.968 206.858 471.598Q205.82 471.228 204.796 470.819Q203.773 470.41 202.765 469.963Q201.758 469.516 200.768 469.031Q199.778 468.546 198.807 468.024Q197.836 467.502 196.886 466.944Q195.936 466.386 195.007 465.792Q194.078 465.199 193.172 464.57Q192.267 463.942 191.385 463.28Q190.504 462.618 189.648 461.923Q188.793 461.229 187.964 460.502Q187.135 459.776 186.334 459.018Q185.533 458.261 184.761 457.474C167.343 439.849 159.135 415.892 159.375 391.351C159.555 372.908 164.78 354.22 172.48 337.555C193.173 292.771 223.028 268.766 257.222 235.074C254.865 221.991 252.024 208.726 251.482 195.41Q251.396 193.122 251.357 190.833Q251.318 188.544 251.326 186.255Q251.334 183.966 251.389 181.677Q251.444 179.388 251.546 177.101Q251.648 174.814 251.797 172.529Q251.946 170.245 252.141 167.964Q252.337 165.683 252.579 163.406Q252.822 161.13 253.111 158.859Q253.4 156.588 253.736 154.323Q254.071 152.059 254.453 149.801Q254.835 147.544 255.263 145.295Q255.692 143.046 256.166 140.807Q256.64 138.567 257.16 136.337Q257.68 134.108 258.246 131.89Q258.812 129.671 259.423 127.465Q260.034 125.259 260.691 123.065Q261.347 120.872 262.048 118.693Q262.749 116.514 263.495 114.349Q264.241 112.185 265.031 110.036Q265.821 107.887 266.654 105.755Q267.488 103.623 268.366 101.508Q269.243 99.3938 270.164 97.2977Q271.085 95.2016 272.048 93.1249Q273.011 91.0482 274.017 88.9916Q275.023 86.9351 276.071 84.8996Q277.119 82.8641 278.208 80.8506Q279.298 78.837 280.428 76.8463Q281.559 74.8555 282.73 72.8883Q283.901 70.9212 285.112 68.9785Q286.323 67.0357 287.574 65.1183Q288.825 63.2008 290.115 61.3094Q291.405 59.418 292.733 57.5535C299.362 48.4364 307.318 40.2736 314.927 31.9779Z"/>
	<path fill="#FEFEFE" d="M732.103 891.71C732.885 891.657 734.032 891.469 734.784 891.648C736.077 891.955 736.198 892.536 736.72 893.61C736.509 896.847 734.341 899.343 732.229 901.654C722.644 912.146 711.04 917.509 696.876 918.169C695.854 918.094 695.027 917.835 694.119 917.341C692.852 916.651 692.517 916.181 692.162 914.823C692.56 913.192 693.274 912.023 694.331 910.718C700.288 903.361 710.25 896.295 719.377 893.672C723.446 892.502 727.908 892.205 732.103 891.71Z"/>
	<path fill="#FEFEFE" d="M668.646 773.243L669.305 773.335C672.723 777.985 675.302 783.998 678.033 789.125C676.024 789.234 673.994 789.33 671.997 789.581C660.355 791.047 650.706 798.757 643.723 807.678L643.473 807.746C640.589 806.257 635.917 794.117 634.708 790.647C635.636 789.307 636.727 788.048 637.819 786.838C645.921 777.86 656.828 773.904 668.646 773.243Z"/>
	<path fill="#FEFEFE" d="M678.445 794.693L679.994 794.604C683.075 796.681 727.523 877.141 730.974 885.154C728.49 885.347 725.994 885.434 723.506 885.561C721.489 884.57 674.673 804.387 670.574 796.133C673.16 795.467 675.81 795.111 678.445 794.693Z"/>
	<path fill="#FEFEFE" d="M143.389 661.944C144.169 662.96 142.374 673.034 142.176 675.083C140.772 689.61 141.722 704.395 146.128 718.361C154.904 746.179 175.143 767.919 199.872 782.698C205.321 785.954 211.017 788.443 216.624 791.357C212.357 790.553 208.124 789.546 203.888 788.592C185.528 783.65 166.482 775.885 151.039 764.605C137.143 754.455 128.662 739.691 126.16 722.706C122.77 699.696 129.847 680.264 143.389 661.944Z"/>
	<path fill="#FEFEFE" d="M288.846 375.495C291.903 379.306 306.827 442.524 309.88 453.231C299.25 454.755 288.593 457.603 278.1 459.936C273.068 457.252 264.628 444.863 262.21 439.392C257.088 427.809 255.815 414.125 260.486 402.178C265.726 388.777 276.051 380.997 288.846 375.495Z"/>
	<path fill="#FEFEFE" d="M303.728 372.706Q308.134 372.502 312.539 372.716Q316.944 372.93 321.309 373.561Q325.673 374.192 329.959 375.233Q334.244 376.275 338.412 377.718C366.432 387.274 390.643 406.175 403.817 432.971Q396.802 434.812 389.766 436.573Q357 444.522 323.898 450.929Q316.757 424.764 310.016 398.493C307.876 389.901 306.037 381.26 303.728 372.706Z"/>
	<path fill="#FEFEFE" d="M309.108 94.1031C309.367 94.0961 309.627 94.0841 309.886 94.0821C313.381 94.0546 316.284 95.6121 318.713 98.0427C326.098 105.434 327.626 118.397 327.625 128.307C327.623 165.638 297.57 196.086 272.864 220.872L265.597 227.78Q265.13 225.94 264.727 224.085C257.247 189.596 257.823 152.699 277.722 122.204C285.133 110.848 295.052 97.0375 309.108 94.1031Z"/>
	<path fill="#FEFEFE" d="M398.014 284.947C399.188 284.941 400.463 285.013 401.599 285.333C403.793 285.952 405.189 287.461 406.434 289.287C414.093 300.517 421.301 315.564 427.864 327.67L464.611 394.789Q530.667 514.547 594.139 635.694Q617.864 680.612 642.701 724.924C650.312 738.809 657.275 753.109 665.454 766.671C664.029 767.126 662.17 767.185 660.675 767.4L656.003 768.724C647.554 755.813 640.398 742.092 632.785 728.687Q613.551 695.185 594.96 661.323C589.117 650.7 583.028 640.206 577.339 629.499L546.49 570.133Q498.682 479.279 448.929 389.477C438.066 370.099 427.976 350.323 417.13 330.95Q410.019 318.237 402.748 305.615C400.754 302.195 398.312 298.917 396.479 295.426C395.586 293.725 394.457 291.308 394.691 289.326C394.964 287.013 396.269 286.201 398.014 284.947Z"/>
	<path fill="#FEFEFE" d="M236.614 662.02C238.467 663.991 266.622 775.622 269.826 789.289C255.208 789.626 241.879 787.297 228.089 782.539C215.082 777.786 201.173 771.423 193.853 759.011C187.224 747.77 186.93 734.196 190.127 721.816C196.387 697.567 215.153 674.579 236.614 662.02Z"/>
	<path fill="#FEFEFE" d="M267.807 651.699C271.37 651.127 275.579 651.295 279.178 651.58C298.128 653.078 317.736 661.082 330.119 675.888C340.693 688.533 345.279 705.066 343.802 721.401C341.871 742.754 329.966 760.953 313.765 774.393C305.059 781.16 294.058 785.148 283.52 787.953C276.668 764.662 271.686 740.705 265.853 717.134C260.744 696.485 254.731 676.029 249.829 655.337C255.784 653.498 261.609 652.351 267.807 651.699Z"/>
	<path fill="#FEFEFE" d="M451.263 429.055C455.534 433.556 467.115 459.085 470.716 466.087C453.929 471.965 437.204 477.451 419.929 481.758C347.66 499.778 273.117 506.901 206.064 541.872C154.803 568.605 111.428 605.269 93.5691 661.883C91.9189 666.868 90.6777 672.089 89.2673 677.15C86.4073 649.132 89.5278 620.269 100.462 594.132C132.679 517.123 217.145 485.759 292.536 468.443C331.775 459.43 371.959 454.221 410.769 443.32C424.487 439.467 438.103 434.501 451.263 429.055Z"/>
	<path fill="#FEFEFE" d="M474.239 475.942C474.308 475.958 474.381 475.965 474.448 475.991C477.48 477.193 490.992 507.009 493.161 511.976C480.947 516.534 468.722 521.273 456.225 524.998C422.037 535.188 387.191 542.021 352.471 550.009C323.526 556.669 294.935 564.232 266.835 573.899C220.008 590.009 144.885 626.93 122.255 673.861C111.831 695.479 111.43 715.741 119.252 738.126L121.518 744.069C114.117 735.766 107.206 726.314 103.133 715.893C94.7918 694.554 101.944 667.176 110.904 647.144C122.959 620.191 142.766 598.694 165.911 580.797C206.465 549.44 251.816 532.382 300.886 519.424C313.374 516.126 325.812 512.801 338.454 510.125C373.118 502.79 408.176 497.248 442.218 487.182C453.045 483.98 463.697 479.972 474.239 475.942Z"/>
</svg>
